inDegrees=no
num_controls=7
num_derivatives=13
num_iterations=267
num_multipliers=7
num_parameters=0
num_slacks=7
num_states=26
objective=6.599533
objective_accelerations=0.428399
objective_balance=0.048187
objective_effort=0.439558
objective_height=5.568422
objective_ligament=0.114967
solver_duration=2268.985778
status=Solve_Succeeded
success=true
DataType=double
version=3
OpenSimVersion=4.4-2022-07-23-0e9fedc
endheader
time	/jointset/ground_pelvis/pelvis_tilt/value	/jointset/ground_pelvis/pelvis_tx/value	/jointset/ground_pelvis/pelvis_ty/value	/jointset/hip_r/hip_flexion_r/value	/jointset/hip_r/hip_adduction_r/value	/jointset/hip_r/hip_rotation_r/value	/jointset/back/lumbar_extension/value	/jointset/patellofemoral_r/patellar_flexion_r/value	/jointset/knee_r/knee_flexion_r/value	/jointset/knee_r/knee_adduction_r/value	/jointset/knee_r/knee_rotation_r/value	/jointset/ankle_r/ankle_angle_r/value	/jointset/subtalar_r/subtalar_angle_r/value	/jointset/ground_pelvis/pelvis_tilt/speed	/jointset/ground_pelvis/pelvis_tx/speed	/jointset/ground_pelvis/pelvis_ty/speed	/jointset/hip_r/hip_flexion_r/speed	/jointset/hip_r/hip_adduction_r/speed	/jointset/hip_r/hip_rotation_r/speed	/jointset/back/lumbar_extension/speed	/jointset/patellofemoral_r/patellar_flexion_r/speed	/jointset/knee_r/knee_flexion_r/speed	/jointset/knee_r/knee_adduction_r/speed	/jointset/knee_r/knee_rotation_r/speed	/jointset/ankle_r/ankle_angle_r/speed	/jointset/subtalar_r/subtalar_angle_r/speed	/forceset/tau_hip_flexion_r	/forceset/tau_hip_adduction_r	/forceset/tau_hip_rotation_r	/forceset/tau_knee_flexion_r	/forceset/tau_ankle_angle_r	/forceset/tau_subtalar_angle_r	/forceset/tau_lumbar_extension	lambda_cid13_p0	lambda_cid14_p0	lambda_cid14_p1	lambda_cid14_p2	lambda_cid14_p3	lambda_cid14_p4	lambda_cid14_p5	/jointset/ground_pelvis/pelvis_tilt/accel	/jointset/ground_pelvis/pelvis_tx/accel	/jointset/ground_pelvis/pelvis_ty/accel	/jointset/hip_r/hip_flexion_r/accel	/jointset/hip_r/hip_adduction_r/accel	/jointset/hip_r/hip_rotation_r/accel	/jointset/back/lumbar_extension/accel	/jointset/patellofemoral_r/patellar_flexion_r/accel	/jointset/knee_r/knee_flexion_r/accel	/jointset/knee_r/knee_adduction_r/accel	/jointset/knee_r/knee_rotation_r/accel	/jointset/ankle_r/ankle_angle_r/accel	/jointset/subtalar_r/subtalar_angle_r/accel	gamma_cid13_p0	gamma_cid14_p0	gamma_cid14_p1	gamma_cid14_p2	gamma_cid14_p3	gamma_cid14_p4	gamma_cid14_p5
0	-0.006516716270026656	0.09626122171595575	0.9427240279050844	0.1762555651711513	-0.2321527094861413	-0.2616407601994666	-0.0385979564078546	0.07317816487761444	0.07317816487761825	0.1745329249172893	0.1745329138974279	0.0324735960626065	-0.003451806367142341	0	0	0	0	0	0	0	0	0	0	0	0	0	0.2336582891538878	-0.1817752138406438	-0.0483108636445695	-0.4337389305515131	0.4479301291403566	-0.1412543398797012	-0.1255059758258263	-39.07633749251499	94.36593618789519	-35.10636904996825	-5.042951704885899	-48.2690501948553	-680.5838760773171	67.91298199671101	-1.522133964577233	-0.7368097583027806	-0.5087241310045644	7.661939124034916	0.2788832247518244	2.25773655631465	-4.939345534403281	8.67648931211656	8.676489312117116	-2.898087565570156	0.1928296415872635	3.382805512191097	1.059789121693249	9.529716741279553e-08	5.463709967948888e-08	-6.330046256709249e-07	2.265922584718618e-07	3.384414553720981e-08	1.525798761535514e-08	-3.602989226529518e-07
0.01	-0.006587070504787631	0.09622506496861537	0.9426996308998554	0.1766257177967931	-0.2321376777237655	-0.2615197021222705	-0.03884664437187576	0.07359970910211319	0.07359970910212184	0.1743882059134901	0.1745309302476053	0.03263909642070873	-0.003398609885906593	-0.01400671773905863	-0.007189366047996697	-0.004869792469270181	0.07367786434736007	0.00294035631497044	0.02410646851350279	-0.04939559647709204	0.08393869535261005	0.08393869535261135	-0.02869803056779299	-0.0003976220677119657	0.03294997827248404	0.01053619612129419	0.2283311822266628	-0.1954554109468445	-0.04682805218321569	-0.4265898274803139	0.4345508651028062	-0.1243698005781193	-0.1212029737940213	-39.09032158907982	90.69859703674545	-28.50001629184073	-5.999691283430196	-46.39275964698628	-680.9443360282954	80.52689118934572	-1.330315358392366	-0.7036957454562056	-0.474662466834081	7.167816682782632	0.2916564111753119	2.471382378762994	-4.888367255801256	8.197018155249975	8.197018155249845	-2.818868435598743	-0.1561302867047255	3.228595966461103	1.034996265499306	1.312369295515581e-07	6.596736451407113e-08	-8.618324385877836e-07	2.370370612819925e-07	5.945650918017051e-08	-1.184609611879031e-07	-4.350319063489416e-07
0.02	-0.006795566852891893	0.0961182754173141	0.9426268248375445	0.1777220703844563	-0.2320952334829791	-0.2611607232839598	-0.03957902841095368	0.07484953198182291	0.07484953198182524	0.1739638650773598	0.1745249559458688	0.03312959695787326	-0.003243159161827425	-0.02762842267104045	-0.01412656079217541	-0.009681811416395328	0.1452399924025685	0.005482495682169042	0.04758415222280039	-0.09673921501178455	0.1656557310418904	0.1656557310418906	-0.05592436646418075	-0.0007981303655940494	0.06500003581233293	0.0204508485686614	0.2230040752994262	-0.2091356080530472	-0.04534524072189069	-0.4194407244091248	0.421171601065247	-0.107485261276541	-0.1168999717622174	-39.13167756718924	87.10940924391393	-21.90105212895107	-6.93118202958934	-44.69771208873551	-680.1207217751999	92.9093677041089	-1.445131403162146	-0.6863754975389158	-0.4971694265755652	7.23879186560454	0.1992398351974541	2.131979595473493	-4.528949945923546	8.2321573794506	8.232157379450681	-2.603748631289089	0.1922523955533623	3.202821365664365	0.9354803869079222	1.671766916903207e-07	7.729762934865338e-08	-1.090660251504642e-06	2.474818640921231e-07	8.50688728231312e-08	-2.521799099911613e-07	-5.097648900449313e-07
0.03	-0.007138466007991766	0.09594286293754395	0.9425059728989224	0.1795244395529476	-0.2320293367467601	-0.2605725451147312	-0.04077460657025939	0.07690621153981586	0.07690621153981972	0.1732747519318403	0.1745172197498958	0.03393562307281079	-0.00299169830568076	-0.04086282677038891	-0.02096359558673856	-0.01449357556194302	0.2149169967472472	0.007641921404885322	0.06992732085666305	-0.1420720550820553	0.2453115330937645	0.2453115330937671	-0.08165753284272148	-0.000760708364601833	0.09599406229646444	0.02973815126187059	0.2153495205643201	-0.1978324945956455	-0.04326341729624377	-0.4083900580726196	0.405895970268134	-0.1108496439821011	-0.1110686801148511	-39.19937610366356	82.09884845321591	-24.25162962589392	-6.542599935943775	-41.03530834341669	-679.5604520758894	86.86189863003922	-1.249290299275472	-0.6834994161823933	-0.4739807729132876	6.784639967603144	0.2159387145198954	2.266927322304554	-4.489796772971028	7.776960918037431	7.776960918037741	-2.522134643254787	-0.09217011702640041	3.016057418282925	0.9097351468917627	1.804985871516898e-07	7.807173955368854e-08	-1.173718768002671e-06	2.34213354945954e-07	9.834897538002737e-08	-3.499236947316088e-07	-5.245180565239469e-07
